Exact Audio Copy V1.0 beta 3 from 29. August 2011

EAC extraction logfile from 28. February 2012, 19:48

T.R.A.M. / Lingua Franca

Used drive  : ASUS    BC-12B1ST   Adapter: 0  ID: 2

Read mode               : Secure
Utilize accurate stream : Yes
Defeat audio cache      : Yes
Make use of C2 pointers : No

Read offset correction                      : 702
Overread into Lead-In and Lead-Out          : No
Fill up missing offset samples with silence : Yes
Delete leading and trailing silent blocks   : No
Null samples used in CRC calculations       : Yes
Used interface                              : Native Win32 interface for Win NT & 2000
Gap handling                                : Appended to previous track

Used output format              : User Defined Encoder
Selected bitrate                : 128 kBit/s
Quality                         : High
Add ID3 tag                     : No
Command line compressor         : C:Program Files (x86)FLACflac.exe
Additional command line options : -T "artist=%artist%" -T "title=%title%" -T "album=%albumtitle%" -T "date=%year%" -T "tracknumber=%tracknr%" -T "genre=%genre%" -8 %source%


TOC of the extracted CD

     Track |   Start  |  Length  | Start sector | End sector 
    ---------------------------------------------------------
        1  |  0:00.00 |  4:46.37 |         0    |    21486   
        2  |  4:46.37 |  4:44.14 |     21487    |    42800   
        3  |  9:30.51 |  6:24.60 |     42801    |    71660   
        4  | 15:55.36 |  7:08.18 |     71661    |   103778   
        5  | 23:03.54 |  3:36.42 |    103779    |   120020   
        6  | 26:40.21 |  3:11.18 |    120021    |   134363   


Track  1

     Filename E:New folder 1 Seven Ways Till Sunday.wav

     Pre-gap length  0:00:02.00

     Peak level 100.0 %
     Extraction speed 2.2 X
     Track quality 99.9 %
     Test CRC 9296116E
     Copy CRC 9296116E
     Track not present in AccurateRip database
     Copy OK

Track  2

     Filename E:New folder 2 Consider Yourself Judged.wav

     Peak level 100.0 %
     Extraction speed 2.5 X
     Track quality 99.9 %
     Test CRC BA11D290
     Copy CRC BA11D290
     Track not present in AccurateRip database
     Copy OK

Track  3

     Filename E:New folder 3 Endeavor.wav

     Peak level 100.0 %
     Extraction speed 2.8 X
     Track quality 99.9 %
     Test CRC D4D5335F
     Copy CRC D4D5335F
     Track not present in AccurateRip database
     Copy OK

Track  4

     Filename E:New folder 4 HAAS Kicker.wav

     Peak level 100.0 %
     Extraction speed 3.4 X
     Track quality 99.9 %
     Test CRC BEDA4BB1
     Copy CRC BEDA4BB1
     Track not present in AccurateRip database
     Copy OK

Track  5

     Filename E:New folder 5 Hollywood Swinging.wav

     Peak level 100.0 %
     Extraction speed 3.9 X
     Track quality 100.0 %
     Test CRC 3D5BAF6E
     Copy CRC 3D5BAF6E
     Track not present in AccurateRip database
     Copy OK

Track  6

     Filename E:New folder 6 Inverted Ballad.wav

     Peak level 99.1 %
     Extraction speed 1.9 X
     Track quality 99.9 %
     Test CRC 1DF001A3
     Copy CRC 1DF001A3
     Track not present in AccurateRip database
     Copy OK


None of the tracks are present in the AccurateRip database

No errors occurred

End of status report

---- CUETools DB Plugin V2.1.3

[CTDB TOCID: nWpCaPoGndIMF0ep8jhRS3TDjEo-] disk not present in database, Submit result: nWpCaPoGndIMF0ep8jhRS3TDjEo- has been uploaded


==== Log checksum 0723E9DC7C615B3C4904A0217A84F12AA49CDF9AC682C906F25D7B49E1645E2B ====
